<svg xmlns="http://www.w3.org/2000/svg" xmlns:xl="http://www.w3.org/1999/xlink" width="690.12" height="314.396" version="1.1" viewBox="167.595 1777 690.12 314.396"><defs><marker id="FilledArrow_Marker" stroke-linejoin="miter" stroke-miterlimit="10" color="#000" markerHeight="8" markerUnits="strokeWidth" markerWidth="10" orient="auto" overflow="visible" viewBox="-1 -4 10 8"><g><path fill="currentColor" stroke="currentColor" stroke-width="1" d="M 8 0 L 0 -3 L 0 3 Z"/></g></marker></defs><g id="Canvas_1" fill="none" fill-opacity="1" stroke="none" stroke-dasharray="none" stroke-opacity="1"><title>Canvas 1</title><rect width="690.12" height="314.396" x="167.595" y="1777" fill="#fff"/><g id="Canvas_1_Layer_1"><title>Layer 1</title><g id="Graphic_120"><text fill="#000" transform="translate(179.09505 2040.948)"><tspan x="0" y="15" fill="#000" font-family="Helvetica Neue" font-size="16">Package installation progress:</tspan></text></g><g id="Graphic_119"><rect width="89.5" height="22" x="174.095" y="2064.396" fill="#60d936"/><text fill="#fff" transform="translate(179.09505 2066.172)"><tspan x="4.79" y="15" fill="#fff" font-family="Helvetica Neue" font-size="16">Resolving</tspan></text></g><g id="Graphic_118"><rect width="89.5" height="22" x="263.595" y="2064.396" fill="#00a2ff"/><text fill="#fff" transform="translate(268.59505 2066.172)"><tspan x="8.782" y="15" fill="#fff" font-family="Helvetica Neue" font-size="16">Fetching</tspan></text></g><g id="Graphic_117"><rect width="89.5" height="22" x="353.095" y="2064.396" fill="#feae00"/><text fill="#fff" transform="translate(358.09505 2066.172)"><tspan x="14.11" y="15" fill="#fff" font-family="Helvetica Neue" font-size="16">Linking</tspan></text></g><g id="Graphic_182"><rect width="82.126" height="22" x="174.095" y="1815.448" fill="#60d936"/></g><g id="Graphic_181"><rect width="100.562" height="22" x="453.994" y="1815.448" fill="#00a2ff"/></g><g id="Graphic_180"><rect width="48.605" height="22" x="750.653" y="1815.448" fill="#feae00"/></g><g id="Graphic_179"><rect width="41.063" height="22" x="174.095" y="1842.448" fill="#60d936"/></g><g id="Graphic_178"><rect width="68.255" height="22" x="453.994" y="1842.448" fill="#00a2ff"/></g><g id="Graphic_177"><rect width="48.605" height="22" x="256.221" y="1869.448" fill="#60d936"/></g><g id="Graphic_176"><rect width="82.126" height="22" x="256.221" y="1896.448" fill="#60d936"/></g><g id="Graphic_175"><rect width="58.661" height="22" x="304.826" y="1923.448" fill="#60d936"/></g><g id="Graphic_174"><rect width="82.126" height="22" x="340.023" y="1950.448" fill="#60d936"/></g><g id="Graphic_173"><rect width="41.063" height="22" x="363.487" y="1977.448" fill="#60d936"/></g><g id="Graphic_172"><rect width="90.506" height="22" x="363.487" y="2004.448" fill="#60d936"/></g><g id="Graphic_171"><rect width="190.23" height="22" x="453.994" y="1869.448" fill="#00a2ff"/></g><g id="Graphic_170"><rect width="296.659" height="22" x="453.994" y="1896.448" fill="#00a2ff"/></g><g id="Graphic_169"><rect width="158.386" height="22" x="453.994" y="1923.334" fill="#00a2ff"/></g><g id="Graphic_168"><rect width="150.006" height="22" x="453.994" y="1950.219" fill="#00a2ff"/></g><g id="Graphic_167"><rect width="249.73" height="22" x="453.994" y="1977.334" fill="#00a2ff"/></g><g id="Graphic_166"><rect width="150.006" height="22" x="453.994" y="2004.448" fill="#00a2ff"/></g><g id="Line_165"><path stroke="#000" stroke-dasharray="4 4" stroke-linecap="round" stroke-linejoin="round" stroke-width="1" d="M 453.9936 1801.448 L 454.118 1841.2375 L 453.9936 1910.541 L 454.118 2035.75"/></g><g id="Graphic_164"><rect width="32.264" height="22" x="750.653" y="1842.448" fill="#feae00"/></g><g id="Graphic_163"><rect width="68.255" height="22" x="750.653" y="1869.448" fill="#feae00"/></g><g id="Graphic_162"><rect width="100.562" height="22" x="750.653" y="1896.448" fill="#feae00"/></g><g id="Graphic_161"><rect width="47.767" height="22" x="750.653" y="1922.99" fill="#feae00"/></g><g id="Graphic_160"><rect width="100.562" height="22" x="750.653" y="1950.219" fill="#feae00"/></g><g id="Graphic_159"><rect width="58.661" height="22" x="750.653" y="1977.448" fill="#feae00"/></g><g id="Graphic_158"><rect width="58.661" height="22" x="750.653" y="2003.99" fill="#feae00"/></g><g id="Line_157"><path stroke="#000" stroke-dasharray="4 4" stroke-linecap="round" stroke-linejoin="round" stroke-width="1" d="M 750.6525 1801.448 L 750.7769 1841.4915 L 750.6525 1911.2373 L 750.7769 2036.75"/></g><g id="Line_156"><path stroke="#000" stroke-dasharray="4 4" stroke-linecap="round" stroke-linejoin="round" stroke-width="1" d="M 173.97066 1801.448 L 174.09505 1841.577 L 173.97066 1911.4714 L 173.09505 2038.25"/></g><g id="Line_155"><path stroke="#000" stroke-dasharray="4 4" stroke-linecap="round" stroke-linejoin="round" stroke-width="1" d="M 851.2149 1801.448 L 851.3392 1841.07 L 851.2149 1910.0817 L 852.2149 2036"/></g><g id="Graphic_154"><text fill="#000" transform="translate(309.5963 1787)"><tspan x="0" y="15" fill="#000" font-family="Helvetica Neue" font-size="16">1</tspan></text></g><g id="Line_153"><line x1="173.995" x2="444.118" y1="1809.264" y2="1809.193" stroke="#000" stroke-linecap="round" stroke-linejoin="round" stroke-width="1" marker-end="url(#FilledArrow_Marker)"/></g><g id="Line_152"><line x1="456.089" x2="740.778" y1="1809.448" y2="1809.689" stroke="#000" stroke-linecap="round" stroke-linejoin="round" stroke-width="1" marker-end="url(#FilledArrow_Marker)"/></g><g id="Line_151"><line x1="750.677" x2="841.339" y1="1809.217" y2="1809.189" stroke="#000" stroke-linecap="round" stroke-linejoin="round" stroke-width="1" marker-end="url(#FilledArrow_Marker)"/></g><g id="Graphic_150"><text fill="#000" transform="translate(609.10115 1787)"><tspan x="0" y="15" fill="#000" font-family="Helvetica Neue" font-size="16">2</tspan></text></g><g id="Graphic_149"><text fill="#000" transform="translate(793.7388 1787)"><tspan x="6.684" y="15" fill="#000" font-family="Helvetica Neue" font-size="16">3</tspan></text></g></g></g></svg>