<svg xmlns="http://www.w3.org/2000/svg" xmlns:xl="http://www.w3.org/1999/xlink" width="574.349" height="314.396" version="1.1" viewBox="135.095 1407 574.349 314.396"><defs><marker id="FilledArrow_Marker" stroke-linejoin="miter" stroke-miterlimit="10" color="#000" markerHeight="8" markerUnits="strokeWidth" markerWidth="10" orient="auto" overflow="visible" viewBox="-1 -4 10 8"><g><path fill="currentColor" stroke="currentColor" stroke-width="1" d="M 8 0 L 0 -3 L 0 3 Z"/></g></marker></defs><g id="Canvas_1" fill="none" fill-opacity="1" stroke="none" stroke-dasharray="none" stroke-opacity="1"><title>Canvas 1</title><rect width="574.349" height="314.396" x="135.095" y="1407" fill="#fff"/><g id="Canvas_1_Layer_1"><title>Layer 1</title><g id="Graphic_148"><rect width="82.126" height="22" x="141.595" y="1445.448" fill="#60d936"/></g><g id="Graphic_147"><rect width="100.562" height="22" x="223.721" y="1445.448" fill="#00a2ff"/></g><g id="Graphic_146"><rect width="48.605" height="22" x="507.391" y="1445.448" fill="#feae00"/></g><g id="Graphic_145"><rect width="41.063" height="22" x="141.595" y="1472.448" fill="#60d936"/></g><g id="Graphic_144"><rect width="68.255" height="22" x="182.658" y="1472.448" fill="#00a2ff"/></g><g id="Graphic_143"><rect width="48.605" height="22" x="223.721" y="1499.448" fill="#60d936"/></g><g id="Graphic_142"><rect width="82.126" height="22" x="223.721" y="1526.448" fill="#60d936"/></g><g id="Graphic_141"><rect width="58.661" height="22" x="272.326" y="1553.448" fill="#60d936"/></g><g id="Graphic_140"><rect width="82.126" height="22" x="307.523" y="1580.448" fill="#60d936"/></g><g id="Graphic_139"><rect width="41.063" height="22" x="330.987" y="1607.448" fill="#60d936"/></g><g id="Graphic_138"><rect width="89.5" height="22" x="330.987" y="1634.448" fill="#60d936"/></g><g id="Graphic_137"><rect width="190.23" height="22" x="272.326" y="1499.448" fill="#00a2ff"/></g><g id="Graphic_136"><rect width="296.659" height="22" x="305.847" y="1526.448" fill="#00a2ff"/></g><g id="Graphic_135"><rect width="158.386" height="22" x="330.987" y="1553.448" fill="#00a2ff"/></g><g id="Graphic_134"><rect width="150.006" height="22" x="389.649" y="1580.448" fill="#00a2ff"/></g><g id="Graphic_133"><rect width="249.73" height="22" x="372.05" y="1607.448" fill="#00a2ff"/></g><g id="Graphic_132"><rect width="151.006" height="22" x="420.494" y="1634.448" fill="#00a2ff"/></g><g id="Graphic_130"><rect width="32.264" height="22" x="507.391" y="1472.448" fill="#feae00"/></g><g id="Graphic_129"><rect width="68.255" height="22" x="507.391" y="1499.448" fill="#feae00"/></g><g id="Graphic_128"><rect width="100.562" height="22" x="602.506" y="1526.448" fill="#feae00"/></g><g id="Graphic_127"><rect width="47.767" height="22" x="507.391" y="1553.448" fill="#feae00"/></g><g id="Graphic_126"><rect width="100.562" height="22" x="539.654" y="1580.448" fill="#feae00"/></g><g id="Graphic_125"><rect width="58.661" height="22" x="621.78" y="1607.448" fill="#feae00"/></g><g id="Graphic_124"><rect width="58.661" height="22" x="571.499" y="1634.448" fill="#feae00"/></g><g id="Line_123"><path stroke="#000" stroke-dasharray="4 4" stroke-linecap="round" stroke-linejoin="round" stroke-width="1" d="M 507.3906 1431.448 L 507.515 1471.4915 L 507.3906 1541.2373 L 506.515 1666.75"/></g><g id="Line_122"><path stroke="#000" stroke-dasharray="4 4" stroke-linecap="round" stroke-linejoin="round" stroke-width="1" d="M 141.47066 1431.448 L 141.59505 1471.921 L 141.47066 1542.4146 L 140.59505 1666.75"/></g><g id="Line_121"><path stroke="#000" stroke-dasharray="4 4" stroke-linecap="round" stroke-linejoin="round" stroke-width="1" d="M 702.9438 1431.448 L 703.06815 1471.07 L 702.9438 1540.0817 L 703.06815 1667.25"/></g><g id="Graphic_116"><text fill="#000" transform="translate(277.0963 1417)"><tspan x="0" y="15" fill="#000" font-family="Helvetica Neue" font-size="16">1</tspan></text></g><g id="Line_115"><line x1="141.495" x2="411.495" y1="1439.215" y2="1439.725" stroke="#000" stroke-linecap="round" stroke-linejoin="round" stroke-width="1" marker-end="url(#FilledArrow_Marker)"/></g><g id="Line_114"><line x1="423.589" x2="497.516" y1="1439.448" y2="1439.668" stroke="#000" stroke-linecap="round" stroke-linejoin="round" stroke-width="1" marker-end="url(#FilledArrow_Marker)"/></g><g id="Line_113"><line x1="507.415" x2="693.068" y1="1439.218" y2="1439.227" stroke="#000" stroke-linecap="round" stroke-linejoin="round" stroke-width="1" marker-end="url(#FilledArrow_Marker)"/></g><g id="Graphic_112"><text fill="#000" transform="translate(460.2036 1417)"><tspan x="0" y="15" fill="#000" font-family="Helvetica Neue" font-size="16">2</tspan></text></g><g id="Graphic_111"><text fill="#000" transform="translate(599.82396 1417)"><tspan x="6.684" y="15" fill="#000" font-family="Helvetica Neue" font-size="16">3</tspan></text></g><g id="Graphic_186"><text fill="#000" transform="translate(146.59505 1670.948)"><tspan x="0" y="15" fill="#000" font-family="Helvetica Neue" font-size="16">Package installation progress:</tspan></text></g><g id="Graphic_185"><rect width="89.5" height="22" x="141.595" y="1694.396" fill="#60d936"/><text fill="#fff" transform="translate(146.59505 1696.172)"><tspan x="4.79" y="15" fill="#fff" font-family="Helvetica Neue" font-size="16">Resolving</tspan></text></g><g id="Graphic_184"><rect width="89.5" height="22" x="231.095" y="1694.396" fill="#00a2ff"/><text fill="#fff" transform="translate(236.09505 1696.172)"><tspan x="8.782" y="15" fill="#fff" font-family="Helvetica Neue" font-size="16">Fetching</tspan></text></g><g id="Graphic_183"><rect width="89.5" height="22" x="320.595" y="1694.396" fill="#feae00"/><text fill="#fff" transform="translate(325.59505 1696.172)"><tspan x="14.11" y="15" fill="#fff" font-family="Helvetica Neue" font-size="16">Linking</tspan></text></g><g id="Line_188"><path stroke="#000" stroke-dasharray="4 4" stroke-linecap="round" stroke-linejoin="round" stroke-width="1" d="M 421.3692 1431.448 L 421.4936 1471.4915 L 421.3692 1541.2373 L 420.4936 1666.75"/></g></g></g></svg>