<svg xmlns="http://www.w3.org/2000/svg" version="1.1" viewBox="0 0 300 319"><style>.font{font-family:sans-serif}.s3{font-size:3px}.s4{font-size:4px}.s5{font-size:5px}.line{stroke:#cacaca}.width{stroke-width:.5}.text{fill:#888}</style><rect width="300" height="319" x="0" y="0" fill="#fff"/><circle cx="44" cy="6" r="4" fill="#cd3731"/><text x="44" y="14" class="font s4" text-anchor="middle">npm</text><text x="44" y="18" class="font s3" text-anchor="middle">v7.8.0</text><circle cx="60" cy="6" r="4" fill="#fbae00"/><text x="60" y="14" class="font s4" text-anchor="middle">pnpm</text><text x="60" y="18" class="font s3" text-anchor="middle">v6.0.0-rc.1</text><circle cx="76" cy="6" r="4" fill="#248ebd"/><text x="76" y="14" class="font s4" text-anchor="middle">Yarn</text><text x="76" y="18" class="font s3" text-anchor="middle">v1.22.10</text><circle cx="92" cy="6" r="4" fill="#248ebd"/><text x="92" y="14" class="font s4" text-anchor="middle">Yarn PnP</text><text x="92" y="18" class="font s3" text-anchor="middle">v1.22.10</text><text x="40" y="28" class="font s5 text" text-anchor="middle">0</text><text x="40" y="310" class="font s5 text" text-anchor="middle">0</text><line x1="90" x2="90" y1="31" y2="305" class="line width"/><text x="90" y="28" class="font s5 text" text-anchor="middle">11</text><text x="90" y="310" class="font s5 text" text-anchor="middle">11</text><line x1="140" x2="140" y1="31" y2="305" class="line width"/><text x="140" y="28" class="font s5 text" text-anchor="middle">22</text><text x="140" y="310" class="font s5 text" text-anchor="middle">22</text><line x1="190" x2="190" y1="31" y2="305" class="line width"/><text x="190" y="28" class="font s5 text" text-anchor="middle">33</text><text x="190" y="310" class="font s5 text" text-anchor="middle">33</text><line x1="240" x2="240" y1="31" y2="305" class="line width"/><text x="240" y="28" class="font s5 text" text-anchor="middle">44</text><text x="240" y="310" class="font s5 text" text-anchor="middle">44</text><line x1="290" x2="290" y1="31" y2="305" class="line width"/><text x="290" y="28" class="font s5 text" text-anchor="middle">55</text><text x="290" y="310" class="font s5 text" text-anchor="middle">55</text><text x="290" y="20" class="font s4 text" font-style="italic" text-anchor="end">Installation time in seconds (lower is better)</text><rect width="244" height="6" x="40" y="35" fill="#cd3731" rx="1" ry="1"/><rect width="77" height="6" x="40" y="41.5" fill="#fbae00" rx="1" ry="1"/><rect width="178" height="6" x="40" y="48" fill="#248ebd" rx="1" ry="1"/><rect width="133" height="6" x="40" y="54.5" fill="#248ebd" rx="1" ry="1"/><rect width="10" height="6" x="40" y="65" fill="#cd3731" rx="1" ry="1"/><rect width="6" height="6" x="40" y="71.5" fill="#fbae00" rx="1" ry="1"/><rect width="3" height="6" x="40" y="78" fill="#248ebd" rx="1" ry="1"/><rect width="0" height="6" x="40" y="84.5" fill="#248ebd" rx="1" ry="1"/><rect width="64" height="6" x="40" y="95" fill="#cd3731" rx="1" ry="1"/><rect width="20" height="6" x="40" y="101.5" fill="#fbae00" rx="1" ry="1"/><rect width="50" height="6" x="40" y="108" fill="#248ebd" rx="1" ry="1"/><rect width="8" height="6" x="40" y="114.5" fill="#248ebd" rx="1" ry="1"/><rect width="140" height="6" x="40" y="125" fill="#cd3731" rx="1" ry="1"/><rect width="34" height="6" x="40" y="131.5" fill="#fbae00" rx="1" ry="1"/><rect width="120" height="6" x="40" y="138" fill="#248ebd" rx="1" ry="1"/><rect width="78" height="6" x="40" y="144.5" fill="#248ebd" rx="1" ry="1"/><rect width="150" height="6" x="40" y="155" fill="#cd3731" rx="1" ry="1"/><rect width="65" height="6" x="40" y="161.5" fill="#fbae00" rx="1" ry="1"/><rect width="106" height="6" x="40" y="168" fill="#248ebd" rx="1" ry="1"/><rect width="65" height="6" x="40" y="174.5" fill="#248ebd" rx="1" ry="1"/><rect width="13" height="6" x="40" y="185" fill="#cd3731" rx="1" ry="1"/><rect width="9" height="6" x="40" y="191.5" fill="#fbae00" rx="1" ry="1"/><rect width="100" height="6" x="40" y="198" fill="#248ebd" rx="1" ry="1"/><rect width="0" height="6" x="40" y="204.5" fill="#248ebd" rx="1" ry="1"/><rect width="10" height="6" x="40" y="215" fill="#cd3731" rx="1" ry="1"/><rect width="7" height="6" x="40" y="221.5" fill="#fbae00" rx="1" ry="1"/><rect width="3" height="6" x="40" y="228" fill="#248ebd" rx="1" ry="1"/><rect width="0" height="6" x="40" y="234.5" fill="#248ebd" rx="1" ry="1"/><rect width="14" height="6" x="40" y="245" fill="#cd3731" rx="1" ry="1"/><rect width="30" height="6" x="40" y="251.5" fill="#fbae00" rx="1" ry="1"/><rect width="187" height="6" x="40" y="258" fill="#248ebd" rx="1" ry="1"/><rect width="0" height="6" x="40" y="264.5" fill="#248ebd" rx="1" ry="1"/><rect width="9" height="6" x="40" y="275" fill="#cd3731" rx="1" ry="1"/><rect width="54" height="6" x="40" y="281.5" fill="#fbae00" rx="1" ry="1"/><rect width="161" height="6" x="40" y="288" fill="#248ebd" rx="1" ry="1"/><rect width="129" height="6" x="40" y="294.5" fill="#248ebd" rx="1" ry="1"/><line x1="40" x2="40" y1="31" y2="305" class="line"/><text x="38" y="44.5" class="font s4" dominant-baseline="middle" text-anchor="end">clean install</text><text x="38" y="70.5" class="font s4" dominant-baseline="middle" text-anchor="end">with cache</text><text x="38" y="74.5" class="font s4" dominant-baseline="middle" text-anchor="end">with lockfile</text><text x="38" y="78.5" class="font s4" dominant-baseline="middle" text-anchor="end">with node_modules</text><text x="38" y="102.5" class="font s4" dominant-baseline="middle" text-anchor="end">with cache</text><text x="38" y="106.5" class="font s4" dominant-baseline="middle" text-anchor="end">with lockfile</text><text x="38" y="134.5" class="font s4" dominant-baseline="middle" text-anchor="end">with cache</text><text x="38" y="164.5" class="font s4" dominant-baseline="middle" text-anchor="end">with lockfile</text><text x="38" y="192.5" class="font s4" dominant-baseline="middle" text-anchor="end">with cache</text><text x="38" y="196.5" class="font s4" dominant-baseline="middle" text-anchor="end">with node_modules</text><text x="38" y="222.5" class="font s4" dominant-baseline="middle" text-anchor="end">with node_modules</text><text x="38" y="226.5" class="font s4" dominant-baseline="middle" text-anchor="end">with lockfile</text><text x="38" y="254.5" class="font s4" dominant-baseline="middle" text-anchor="end">with node_modules</text><text x="38" y="284.5" class="font s4" dominant-baseline="middle" text-anchor="end">update</text><text x="290" y="317" class="font s4 text" text-anchor="end">Tests were run using Node.js v12.21.0</text></svg>